{
  "accessors": [
    {
      "bufferView": 1,
      "componentType": 5126,
      "count": 65532,
      "max": [
        147.45416259765625,
        -371.9143981933594,
        10.815217971801758
      ],
      "min": [
        100.62403106689453,
        -373.73822021484375,
        -33.75894546508789
      ],
      "type": "VEC3"
    },
    {
      "bufferView": 1,
      "byteOffset": 786384,
      "componentType": 5126,
      "count": 65532,
      "max": [
        0.9998806118965149,
        1.0,
        0.999891459941864
      ],
      "min": [
        -0.9998811483383179,
        -1.0,
        -0.932539701461792
      ],
      "type": "VEC3"
    },
    {
      "bufferView": 0,
      "componentType": 5125,
      "count": 371760,
      "type": "SCALAR"
    },
    {
      "bufferView": 1,
      "byteOffset": 1572768,
      "componentType": 5126,
      "count": 65532,
      "max": [
        133.3883514404297,
        -371.91436767578125,
        11.95853042602539
      ],
      "min": [
        111.1300048828125,
        -380.633056640625,
        -20.818592071533203
      ],
      "type": "VEC3"
    },
    {
      "bufferView": 1,
      "byteOffset": 2359152,
      "componentType": 5126,
      "count": 65532,
      "max": [
        0.9835551977157593,
        1.0,
        0.9371634721755981
      ],
      "min": [
        -0.9999266862869263,
        -1.0,
        -0.9999708533287048
      ],
      "type": "VEC3"
    },
    {
      "bufferView": 0,
      "byteOffset": 1487040,
      "componentType": 5125,
      "count": 349962,
      "type": "SCALAR"
    },
    {
      "bufferView": 1,
      "byteOffset": 3145536,
      "componentType": 5126,
      "count": 65532,
      "max": [
        133.42062377929688,
        -373.5411376953125,
        -4.276865005493164
      ],
      "min": [
        114.71248626708984,
        -379.80419921875,
        -20.744503021240234
      ],
      "type": "VEC3"
    },
    {
      "bufferView": 1,
      "byteOffset": 3931920,
      "componentType": 5126,
      "count": 65532,
      "max": [
        0.9999346733093262,
        1.0,
        0.9950724840164185
      ],
      "min": [
        -0.9971973896026611,
        -0.9999859929084778,
        -0.9979777932167053
      ],
      "type": "VEC3"
    },
    {
      "bufferView": 0,
      "byteOffset": 2886888,
      "componentType": 5125,
      "count": 345018,
      "type": "SCALAR"
    },
    {
      "bufferView": 1,
      "byteOffset": 4718304,
      "componentType": 5126,
      "count": 65532,
      "max": [
        134.7584686279297,
        -371.9143981933594,
        0.007008552551269531
      ],
      "min": [
        113.31969451904297,
        -380.8118896484375,
        -21.807445526123047
      ],
      "type": "VEC3"
    },
    {
      "bufferView": 1,
      "byteOffset": 5504688,
      "componentType": 5126,
      "count": 65532,
      "max": [
        0.9998705387115479,
        1.0,
        0.9998611807823181
      ],
      "min": [
        -0.9998704791069031,
        -1.0,
        -0.9999856948852539
      ],
      "type": "VEC3"
    },
    {
      "bufferView": 0,
      "byteOffset": 4266960,
      "componentType": 5125,
      "count": 336795,
      "type": "SCALAR"
    },
    {
      "bufferView": 1,
      "byteOffset": 6291072,
      "componentType": 5126,
      "count": 65532,
      "max": [
        144.4788055419922,
        -371.91436767578125,
        9.05386734008789
      ],
      "min": [
        115.04949188232422,
        -378.6068115234375,
        -20.505714416503906
      ],
      "type": "VEC3"
    },
    {
      "bufferView": 1,
      "byteOffset": 7077456,
      "componentType": 5126,
      "count": 65532,
      "max": [
        0.9593039155006409,
        1.0,
        0.9999970197677612
      ],
      "min": [
        -0.9812281727790833,
        -1.0,
        -0.9828948378562927
      ],
      "type": "VEC3"
    },
    {
      "bufferView": 0,
      "byteOffset": 5614140,
      "componentType": 5125,
      "count": 362532,
      "type": "SCALAR"
    },
    {
      "bufferView": 1,
      "byteOffset": 7863840,
      "componentType": 5126,
      "count": 39127,
      "max": [
        142.0873260498047,
        -371.91436767578125,
        -0.7026243209838867
      ],
      "min": [
        103.59934997558594,
        -374.3649597167969,
        -30.85430908203125
      ],
      "type": "VEC3"
    },
    {
      "bufferView": 1,
      "byteOffset": 8333364,
      "componentType": 5126,
      "count": 39127,
      "max": [
        0.9812214374542236,
        1.0,
        0.9828941822052002
      ],
      "min": [
        -0.7465898990631104,
        -1.0,
        -0.8339204788208008
      ],
      "type": "VEC3"
    },
    {
      "bufferView": 0,
      "byteOffset": 7064268,
      "componentType": 5125,
      "count": 222069,
      "type": "SCALAR"
    }
  ],
  "asset": {
    "extras": {
      "author": "uosew (https://sketchfab.com/uosew)",
      "license": "CC-BY-4.0 (http://creativecommons.org/licenses/by/4.0/)",
      "source": "https://sketchfab.com/3d-models/sun-decoration-97bf61dc5345444eb4097724cfbd6c3c",
      "title": "Sun Decoration"
    },
    "generator": "Sketchfab-16.53.0",
    "version": "2.0"
  },
  "bufferViews": [
    {
      "buffer": 0,
      "byteLength": 7952544,
      "name": "floatBufferViews",
      "target": 34963
    },
    {
      "buffer": 0,
      "byteLength": 8802888,
      "byteOffset": 7952544,
      "byteStride": 12,
      "name": "floatBufferViews",
      "target": 34962
    }
  ],
  "buffers": [
    {
      "byteLength": 16755432,
      "uri": "scene.bin"
    }
  ],
  "extensionsUsed": [
    "KHR_materials_specular"
  ],
  "materials": [
    {
      "doubleSided": true,
      "extensions": {
        "KHR_materials_specular": {
          "specularColorFactor": [
            1.0,
            1.0,
            1.0
          ],
          "specularFactor": 0.5715760041867444
        }
      },
      "name": "Scene_-_Root",
      "pbrMetallicRoughness": {
        "baseColorFactor": [
          0.9769171412349945,
          0.6248197251118757,
          0.14449618954881738,
          1.0
        ],
        "roughnessFactor": 0.6324702977824915
      }
    }
  ],
  "meshes": [
    {
      "name": "Object_0",
      "primitives": [
        {
          "attributes": {
            "NORMAL": 1,
            "POSITION": 0
          },
          "indices": 2,
          "material": 0,
          "mode": 4
        }
      ]
    },
    {
      "name": "Object_1",
      "primitives": [
        {
          "attributes": {
            "NORMAL": 4,
            "POSITION": 3
          },
          "indices": 5,
          "material": 0,
          "mode": 4
        }
      ]
    },
    {
      "name": "Object_2",
      "primitives": [
        {
          "attributes": {
            "NORMAL": 7,
            "POSITION": 6
          },
          "indices": 8,
          "material": 0,
          "mode": 4
        }
      ]
    },
    {
      "name": "Object_3",
      "primitives": [
        {
          "attributes": {
            "NORMAL": 10,
            "POSITION": 9
          },
          "indices": 11,
          "material": 0,
          "mode": 4
        }
      ]
    },
    {
      "name": "Object_4",
      "primitives": [
        {
          "attributes": {
            "NORMAL": 13,
            "POSITION": 12
          },
          "indices": 14,
          "material": 0,
          "mode": 4
        }
      ]
    },
    {
      "name": "Object_5",
      "primitives": [
        {
          "attributes": {
            "NORMAL": 16,
            "POSITION": 15
          },
          "indices": 17,
          "material": 0,
          "mode": 4
        }
      ]
    }
  ],
  "nodes": [
    {
      "children": [
        1
      ],
      "matrix": [
        1.0,
        0.0,
        0.0,
        0.0,
        0.0,
        2.220446049250313e-16,
        -1.0,
        0.0,
        0.0,
        1.0,
        2.220446049250313e-16,
        0.0,
        0.0,
        0.0,
        0.0,
        1.0
      ],
      "name": "Sketchfab_model"
    },
    {
      "children": [
        2,
        3,
        4,
        5,
        6,
        7
      ],
      "name": "TheSun.stl.cleaner.materialmerger.gles"
    },
    {
      "mesh": 0,
      "name": "Object_2"
    },
    {
      "mesh": 1,
      "name": "Object_3"
    },
    {
      "mesh": 2,
      "name": "Object_4"
    },
    {
      "mesh": 3,
      "name": "Object_5"
    },
    {
      "mesh": 4,
      "name": "Object_6"
    },
    {
      "mesh": 5,
      "name": "Object_7"
    }
  ],
  "scene": 0,
  "scenes": [
    {
      "name": "Sketchfab_Scene",
      "nodes": [
        0
      ]
    }
  ]
}
